# xmcd CD database file
#
# Track frame offsets:
#	150
#	12869
#	25856
#	38974
#	50564
#	64556
#	79265
#	92862
#	106858
#	127151
#	140234
#	155123
#	170204
#	182270
#	194891
#	202008
#	211932
#
# Disc length: 2987 seconds
#
# Revision: 0
# Processed by: cddbd v1.5.2PL0 Copyright (c) Steve Scherf et al.
# Submitted via: CDex 1.51
#
DISCID=000ba911
DTITLE=Various Artist - Mississippi Bluesmen
DYEAR=2012
DGENRE=Blues
TTITLE0=Elmore James - Dust My Broom
TTITLE1=Robert Johnson - Come On In My Kitchen
TTITLE2=Howlin' Wolf - Back Door Man
TTITLE3=John Lee Hooker - Boom Boom
TTITLE4=Charley Patton - Pony Blues
TTITLE5=Big Joe Williams - Highway 49
TTITLE6=Arthur "Big Boy" Crudup - Rock Me Mama
TTITLE7=B.B. King - Three O'Clock Blues
TTITLE8=Otis Spann - Country Boy
TTITLE9=Muddy Waters - Got My Mojo Working
TTITLE10=Eddie Boyd - Third Degree
TTITLE11=Mississippi John Hurt - Spike Driver Blues
TTITLE12=Bukka White - Aberdeen Mississippi Blues
TTITLE13=Jimmy Reed - Big Boss Man
TTITLE14=Son House - John The Revelator
TTITLE15=James Cotton - Diggin' My Potatoes
TTITLE16=Otis Rush - Double Trouble
EXTD=YEAR: 2012
EXTT0=
EXTT1=
EXTT2=
EXTT3=
EXTT4=
EXTT5=
EXTT6=
EXTT7=
EXTT8=
EXTT9=
EXTT10=
EXTT11=
EXTT12=
EXTT13=
EXTT14=
EXTT15=
EXTT16=
PLAYORDER=
